<?xml version="1.0" standalone="no"?>
<svg xmlns:xlink="http://www.w3.org/1999/xlink" width="26" height="26" viewBox="0 0 1024 1024" class="icon" version="1.1" xmlns="http://www.w3.org/2000/svg"><path d="M509.7472 152.8832a124.3648 124.3648 0 1 0 0 248.7296 124.3648 124.3648 0 0 0 0-248.7296z m0 52.6336a71.7312 71.7312 0 1 1 0 143.4624 71.7312 71.7312 0 0 1 0-143.4624z" fill="#BE4BDB" id="element_aa9380f8"/><path d="M635.0848 694.9632l48.3584 26.0608 2.1248-4.8896-12.416 103.552-52.2496-6.272 14.1824-118.4512zM678.4 381.184c11.0848 5.5296 22.4512 14.5664 34.6112 26.6752 7.9872 7.936 16.2304 17.152 24.6528 27.392 6.4 7.7568 12.6976 15.872 18.7904 24.064l11.4944 15.9232 8.96 13.1328 12.544 19.1488-22.7328 19.8144-56.9856-20.1216 10.0608-8.7552-5.5552-7.7056-8.5248-11.2128-8.6784-10.8288a326.144 326.144 0 0 0-21.1712-23.552c-8.5248-8.4992-15.872-14.336-20.992-16.896-29.5936-14.7968-263.3472-15.872-288.5888-0.896-31.488 18.6368-134.1696 138.5472-134.1696 153.856 0 29.4144 13.4656 59.8528 27.3152 62.336l7.9872-5.5552a182.272 182.272 0 0 0 10.5728-8.3968l3.1232-2.7136c3.3024-2.9184 6.7584-6.144 10.6496-9.8816l22.272-22.0928c7.2192-7.1168 12.4672-11.9552 17.3568-15.872 9.0624-7.2192 16.4352-11.264 26.6496-11.392 20.3264-0.256 30.2848 15.0528 30.9248 32.1792l9.8048 215.4752-52.5824 2.4832-7.936-172.6976-5.5808 5.5296c-6.144 6.0416-11.4432 11.0592-16.5888 15.616-24.8576 22.0928-44.1344 33.024-65.8944 29.1328-46.8992-8.3712-70.7328-62.208-70.7328-114.176 0-38.7072 114.1248-171.9552 160-199.1168 41.3696-24.5248 294.016-23.3728 338.944-0.896z" fill="#ED892D" id="element_b1d20df1"/><path d="M619.7504 419.6608l219.6736 77.5424-47.4368 107.8272c2.6112-13.2096 2.048-24.32-1.536-31.104l0.2816 0.6656c0.0768 0.4352-0.4352 0.2048-1.3824-0.3584l-3.9168-2.56a135.2704 135.2704 0 0 0-30.3872-13.4912l13.312-30.2336-113.664-40.1664-54.912 188.2112 83.6352 45.0304 26.2912-59.6992c9.4208 13.3888 20.5056 25.4464 27.264 29.7472l1.28 0.7168c2.816-1.6384 6.144-4.2752 9.856-7.8336l2.816-2.8672c5.8112-6.0928 11.776-13.696 17.2544-21.9904l-59.52 135.296-171.3152-92.2368 82.4064-282.496z" fill="#F5C280" id="element_cf614ca9"/><path d="M702.592 509.3376c-37.8112 21.6064-68.4032 79.7696-62.0032 124.6208 6.144 43.136 56.1152 103.6544 89.5232 110.336 34.6624 6.912 72.2432-32.4608 97.3568-82.688 19.0208-38.0928 24.704-78.0288 11.8272-107.52l-2.304-4.7872c-16.0256-30.208-97.6896-60.928-134.4-39.9616z m88.1408 65.2544l-0.256-0.6656c6.3232 11.9808 3.1744 37.632-10.112 64.1536-8.0384 16.128-18.944 32-29.44 43.008l-2.816 2.8672c-3.712 3.584-7.04 6.1952-9.856 7.8336l-1.28-0.7168c-12.8256-8.192-41.3952-44.3904-44.288-64.5632-3.2512-22.8352 16.4608-60.288 36.0448-71.4752 3.3536-1.92 17.408-0.512 34.1504 5.8112 8.2432 3.072 16.3072 7.0144 22.528 10.8544l3.9424 2.5344c0.9472 0.5632 1.4592 0.7936 1.3824 0.3584z" fill="#ED892D" id="element_55dfbe3f"/><path d="M617.6256 404.736l-107.8784 147.0464L401.92 404.736h39.2192l68.6336 88.2688 68.6592-88.2688z" fill="#F5C280" id="element_bddf4157"/><path d="M529.3568 522.3936v78.4384h-39.2192v-78.4384z" fill="#F5C280" id="element_7de65a7c"/><path d="M509.7472 542.0032a49.024 49.024 0 1 1 0 98.048 49.024 49.024 0 0 1 0-98.048z" fill="#F5C280" id="element_a7d0edc2"/></svg>