<?xml version="1.0" standalone="no"?>
<svg xmlns:xlink="http://www.w3.org/1999/xlink" width="26" height="26" viewBox="0 0 146 146" xmlns="http://www.w3.org/2000/svg"><title id="element_13d0b28b">001-business</title><rect x="0.5" y="0.5" width="145" height="145" fill="none" id="element_5707dedb"/><circle cx="23.35" cy="69.53" r="4.8" fill="#a8cbeb" id="element_7e0c793f"/><circle cx="109.75" cy="34.33" r="4.8" fill="#a8cbeb" id="element_8ad8ec70"/><circle cx="80.95" cy="58.33" r="4.8" fill="#a8cbeb" id="element_ece0afc7"/><path d="M48,49.61a4.67,4.67,0,0,1-.7-2.48A4.81,4.81,0,1,1,48,49.61Z" fill="#a8cbeb" id="element_8940aecf"/><path d="M118.55,53.53v52.8h-17.6V53.53a3.2,3.2,0,0,1,3.2-3.2h11.2A3.2,3.2,0,0,1,118.55,53.53Z" fill="#ea9080" id="element_219a3c05"/><path d="M60.95,66.33v40H43.35v-40a3.2,3.2,0,0,1,3.2-3.2h11.2A3.2,3.2,0,0,1,60.95,66.33Z" fill="#7bd489" id="element_9ac5b5a3"/><path d="M14.55,106.33V88.73a3.2,3.2,0,0,1,3.2-3.2h11.2a3.2,3.2,0,0,1,3.2,3.2v17.6" fill="none" stroke="#515f76" stroke-miterlimit="10" stroke-width="2.4" id="element_ffdeaf42"/><path d="M72.15,106.33V77.53a3.2,3.2,0,0,1,3.2-3.2h11.2a3.2,3.2,0,0,1,3.2,3.2v28.8" fill="#ffffff" stroke="#515f76" stroke-miterlimit="10" stroke-width="2.4" id="element_da917e36"/><path d="M56.95,47.13A4.8,4.8,0,0,1,48,49.61a4.67,4.67,0,0,1-.7-2.48A4.8,4.8,0,1,1,56.95,47.13Z" fill="none" stroke="#515f76" stroke-linecap="round" stroke-miterlimit="10" stroke-width="2.4" id="element_cc9f88be"/><circle cx="109.75" cy="34.33" r="4.8" fill="none" stroke="#515f76" stroke-linecap="round" stroke-miterlimit="10" stroke-width="2.4" id="element_07eaf09c"/><circle cx="80.95" cy="58.33" r="4.8" fill="none" stroke="#515f76" stroke-linecap="round" stroke-miterlimit="10" stroke-width="2.4" id="element_2f80919b"/><circle cx="23.35" cy="69.53" r="4.8" fill="none" stroke="#515f76" stroke-linecap="round" stroke-miterlimit="10" stroke-width="2.4" id="element_b07cd335"/><polyline points="27.5 66.33 48.04 49.6 48.15 49.52" fill="none" stroke="#515f76" stroke-miterlimit="10" stroke-width="2.4" id="element_67511a08"/><line x1="56.95" y1="48.73" x2="76.15" y2="56.59" fill="none" stroke="#515f76" stroke-miterlimit="10" stroke-width="2.4" id="element_b82ba850"/><line x1="85.19" y1="55.79" x2="105.68" y2="37.84" fill="none" stroke="#515f76" stroke-miterlimit="10" stroke-width="2.4" id="element_21187c29"/><path d="M115.35,50.4h-11.2a3.54,3.54,0,0,0-3.53,3.53v52.39l2.4,0.07L103.38,57a2.4,2.4,0,0,1,2-2.36l13-1.12h0A3,3,0,0,0,115.35,50.4Z" fill="#eeb8a9" opacity="0.8" id="element_9f933372"/><path d="M100.95,106.33V53.53a3.2,3.2,0,0,1,3.2-3.2h11.2a3.2,3.2,0,0,1,3.2,3.2v52.8" fill="none" stroke="#515f76" stroke-miterlimit="10" stroke-width="2.4" id="element_f1022e58"/><path d="M57.75,63.2H46.55A3.41,3.41,0,0,0,43,66.29l0,40.11h2.43V70.46a2.4,2.4,0,0,1,2.39-2.4l13-1.7A3.19,3.19,0,0,0,57.75,63.2Z" fill="#a4e0b3" opacity="0.8" id="element_d6fa8772"/><path d="M43.35,106.33v-40a3.2,3.2,0,0,1,3.2-3.2h11.2a3.2,3.2,0,0,1,3.2,3.2v40" fill="none" stroke="#515f76" stroke-miterlimit="10" stroke-width="2.4" id="element_fe09b348"/><line x1="2.75" y1="113.67" x2="5.95" y2="116.87" fill="none" stroke="#b8b9ba" stroke-linecap="round" stroke-miterlimit="10" stroke-width="1.6" id="element_7feb6777"/><line x1="5.95" y1="113.67" x2="2.75" y2="116.87" fill="none" stroke="#b8b9ba" stroke-linecap="round" stroke-miterlimit="10" stroke-width="1.6" id="element_7e2e3f6a"/><circle cx="121.15" cy="115.27" r="1.6" fill="#b8b9ba" id="element_cc190f82"/><circle cx="8.75" cy="69.27" r="2" fill="none" stroke="#b8b9ba" stroke-linecap="round" stroke-miterlimit="10" stroke-width="1.6" id="element_0843d5f7"/><circle cx="13.95" cy="60.07" r="1.6" fill="#b8b9ba" id="element_7bfd43d8"/><path d="M140.05,99.36l2.33-1.22a0.08,0.08,0,0,1,.12.08l-0.44,2.59,2,1.95-2.76.4-1.24,2.5-1.24-2.5-2.6-.38a0.08,0.08,0,0,1,0-.14l1.88-1.84-0.47-2.75Z" fill="#a8cbeb" id="element_43a86ecd"/><circle cx="134.75" cy="89.67" r="1.6" fill="#b8b9ba" id="element_95f5a8eb"/><circle cx="133.55" cy="114.87" r="2" fill="none" stroke="#b8b9ba" stroke-linecap="round" stroke-miterlimit="10" stroke-width="1.6" id="element_ad7d16b3"/><line x1="8.15" y1="106.33" x2="126.55" y2="106.33" fill="none" stroke="#515f76" stroke-linecap="round" stroke-miterlimit="10" stroke-width="2.4" id="element_76360961"/></svg>